<?xml version="1.0" standalone="no"?>
<!DOCTYPE svg PUBLIC "-//W3C//DTD SVG 20010904//EN"
 "http://www.w3.org/TR/2001/REC-SVG-20010904/DTD/svg10.dtd">
<svg version="1.0"
  xmlns="http://www.w3.org/2000/svg" width="711.000000pt" height="591.000000pt" viewBox="0 0 711.000000 591.000000" preserveAspectRatio="xMidYMid meet">

  <g transform="translate(0.000000,591.000000) scale(0.100000,-0.100000)" fill="#FFF" stroke="none">
    <path d="M3527 5358 c-10 -8 -17 -31 -19 -58 -3 -45 -3 -45 -43 -48 -22 -2
-45 -8 -52 -14 -35 -29 5 -78 64 -78 l33 0 0 -76 c0 -69 -2 -75 -17 -69 -36
14 -102 17 -137 5 -49 -16 -119 -88 -134 -138 -28 -93 -8 -206 52 -297 19 -29
36 -68 38 -86 l3 -34 60 0 60 0 3 33 c2 19 -9 65 -28 112 -39 102 -48 182 -27
233 22 52 53 64 123 47 43 -11 62 -11 88 -2 51 19 75 14 108 -18 30 -30 30
-32 26 -113 -4 -62 -13 -102 -37 -161 -17 -44 -31 -91 -29 -105 3 -25 6 -26
63 -26 l59 0 8 38 c4 21 19 53 33 71 61 80 87 194 65 286 -10 40 -24 65 -59
100 -57 60 -110 78 -182 64 l-49 -11 0 74 0 73 31 0 c57 0 89 33 69 71 -8 14
-21 19 -55 19 l-45 0 0 43 c0 62 -35 93 -73 65z"/>
    <path d="M3076 4939 c-89 -21 -136 -87 -136 -192 0 -97 23 -151 96 -224 59
-61 63 -63 112 -63 28 0 54 5 57 10 4 6 -13 32 -36 58 -23 26 -50 65 -60 87
-24 52 -25 142 -2 175 10 14 25 53 33 87 20 77 17 81 -64 62z"/>
    <path d="M3957 4943 c-9 -15 18 -117 38 -148 15 -21 20 -46 20 -90 0 -67 -27
-124 -91 -195 -18 -20 -31 -40 -27 -44 3 -3 29 -6 57 -6 48 0 54 3 109 56 168
159 135 396 -59 429 -23 3 -44 3 -47 -2z"/>
    <path d="M3112 4313 l3 -68 440 0 440 0 0 65 0 65 -443 3 -443 2 3 -67z"/>
    <path d="M3164 4115 c-14 -25 -348 -812 -740 -1748 -604 -1440 -713 -1705
-705 -1724 11 -23 45 -31 66 -15 6 4 308 715 670 1581 l660 1573 5 -1843 c3
-1014 9 -1850 13 -1856 10 -16 49 -17 65 -1 9 9 12 450 12 1923 0 1224 4 1925
10 1953 15 63 48 129 86 168 l34 34 -75 0 -74 0 -27 -45z"/>
    <path d="M3472 4142 c-72 -26 -117 -66 -155 -137 -33 -62 -31 -175 5 -236 32
-55 85 -103 135 -124 50 -21 152 -19 205 4 55 23 120 93 143 154 21 56 17 155
-8 204 -63 120 -202 178 -325 135z"/>
    <path d="M3810 4123 c18 -20 45 -62 59 -93 l26 -55 5 -1940 c3 -1067 9 -1946
13 -1952 11 -17 52 -16 66 0 8 10 12 516 13 1862 l3 1848 639 -1524 c351 -838
651 -1552 667 -1586 23 -52 32 -63 51 -63 28 0 48 17 48 40 0 26 -1425 3416
-1454 3461 l-26 39 -71 0 -71 0 32 -37z"/>
    <path d="M3495 3417 c-29 -45 -47 -114 -52 -207 -3 -52 -10 -100 -15 -107 -5
-7 -39 -29 -74 -50 l-64 -37 0 -144 0 -144 66 58 c89 78 151 149 179 203 l23
45 26 -52 c27 -52 114 -147 194 -210 l42 -34 0 141 0 140 -69 40 -68 40 -7 91
c-8 101 -37 209 -63 232 -10 9 -37 16 -61 16 -33 1 -46 -4 -57 -21z"/>
    <path d="M2987 3263 c-4 -3 -7 -20 -7 -37 0 -35 -37 -116 -53 -116 -7 0 -4 -5
5 -11 47 -27 108 27 108 96 0 48 -32 90 -53 68z"/>
    <path d="M4091 3257 c-18 -23 -24 -75 -11 -106 13 -32 69 -65 93 -55 13 5 11
11 -9 41 -13 19 -27 57 -30 84 -7 50 -21 62 -43 36z"/>
    <path d="M2923 2988 c-54 -60 -60 -138 -19 -257 14 -41 26 -87 26 -102 0 -35
19 -30 43 10 22 38 21 85 -3 163 -23 74 -25 127 -7 153 19 25 40 10 35 -26 -6
-37 -2 -36 17 2 15 28 15 33 0 55 -20 31 -64 32 -92 2z"/>
    <path d="M4100 2989 c-12 -22 -5 -75 12 -85 7 -5 9 1 5 17 -9 35 7 57 27 40
21 -18 21 -104 0 -162 -22 -65 -22 -134 2 -166 31 -41 44 -40 44 4 0 21 11 71
25 111 14 41 25 93 25 115 0 51 -31 121 -58 136 -33 18 -70 13 -82 -10z"/>
    <path d="M4290 2548 c0 -42 -7 -95 -15 -118 -8 -23 -15 -46 -15 -51 0 -17 37
-9 58 14 58 62 55 155 -7 211 l-21 19 0 -75z"/>
    <path d="M2780 2573 c-33 -48 -32 -109 1 -158 22 -33 62 -55 75 -42 3 3 -3 31
-15 62 -13 34 -21 79 -21 115 0 33 -3 60 -7 60 -5 0 -19 -17 -33 -37z"/>
    <path d="M2940 2510 c-25 -25 -26 -62 -2 -83 25 -23 58 -21 82 3 26 26 25 54
-2 80 -28 25 -52 26 -78 0z"/>
    <path d="M4102 2514 c-42 -29 -18 -104 34 -104 62 1 80 80 24 110 -25 13 -32
13 -58 -6z"/>
    <path d="M2685 2327 c-16 -22 -47 -49 -67 -60 -44 -22 -47 -33 -14 -48 56 -26
126 24 126 88 0 59 -12 64 -45 20z"/>
    <path d="M4385 2330 c-9 -40 0 -64 36 -95 34 -28 75 -32 105 -11 22 16 24 14
-38 49 -26 15 -55 41 -65 57 -22 38 -30 38 -38 0z"/>
    <path d="M2925 2314 c-53 -19 -85 -56 -85 -98 0 -31 2 -33 27 -28 17 3 55 33
95 74 l68 68 -33 -1 c-17 0 -50 -7 -72 -15z"/>
    <path d="M4136 2276 c48 -53 119 -100 136 -90 15 10 8 51 -14 79 -26 34 -91
64 -137 65 l-34 0 49 -54z"/>
    <path d="M2726 2148 c-7 -13 -21 -47 -31 -76 -31 -96 -88 -138 -128 -94 -29
32 -33 80 -8 112 24 34 27 50 7 50 -24 0 -64 -39 -76 -75 -26 -78 33 -175 106
-175 80 0 124 56 144 182 5 37 13 74 16 82 9 24 -14 19 -30 -6z"/>
    <path d="M4358 2153 c5 -10 13 -45 17 -78 14 -120 62 -185 134 -185 116 0 168
176 70 234 -39 23 -55 12 -29 -21 39 -49 17 -143 -33 -143 -37 0 -63 26 -86
87 -34 89 -53 123 -68 123 -10 0 -11 -5 -5 -17z"/>
    <path d="M2948 2133 c-8 -10 -22 -39 -31 -65 -15 -45 -15 -48 1 -48 28 0 91
49 98 75 12 47 -37 74 -68 38z"/>
    <path d="M4107 2143 c-18 -17 -6 -62 23 -86 30 -26 68 -43 76 -35 10 10 -28
109 -46 118 -22 12 -44 13 -53 3z"/>
    <path d="M2902 1928 c-7 -7 -12 -26 -12 -43 0 -39 16 -55 55 -55 40 0 55 16
55 57 0 22 -6 36 -19 43 -26 14 -64 13 -79 -2z"/>
    <path d="M4126 1918 c-21 -29 -20 -51 2 -71 38 -35 102 -9 102 40 0 49 -76 72
-104 31z"/>
    <path d="M3362 1904 c-62 -30 -77 -52 -56 -82 19 -28 42 -28 99 0 l45 22 43
-22 c54 -27 72 -27 122 -2 22 11 45 20 52 20 7 0 30 -9 50 -20 47 -25 65 -25
87 -1 20 22 18 50 -4 61 -8 4 -34 17 -56 29 -53 27 -99 27 -148 0 l-39 -21
-38 21 c-47 27 -91 25 -157 -5z"/>
    <path d="M2756 1860 c-21 -53 -14 -88 23 -124 33 -32 102 -46 126 -26 20 16
12 27 -39 51 -44 20 -57 36 -79 103 l-13 39 -18 -43z"/>
    <path d="M4326 1857 c-9 -48 -31 -74 -89 -103 -48 -25 -50 -27 -31 -41 24 -18
84 -12 118 13 43 33 57 84 36 138 -13 35 -27 33 -34 -7z"/>
    <path d="M2402 1797 c-7 -8 -6 -19 3 -37 8 -14 14 -48 15 -76 0 -64 16 -111
42 -125 17 -9 25 -7 45 13 19 20 27 41 34 104 6 43 17 86 24 94 11 13 12 19 3
28 -18 18 -29 15 -59 -14 l-27 -26 -17 26 c-19 28 -46 34 -63 13z"/>
    <path d="M4545 1800 c-3 -5 0 -22 8 -37 8 -15 17 -57 21 -92 9 -99 48 -143 88
-103 15 15 25 45 34 104 7 46 14 91 16 102 2 10 -5 23 -15 30 -15 9 -22 6 -42
-17 l-24 -27 -25 25 c-26 26 -50 32 -61 15z"/>
    <path d="M2680 1599 c-130 -59 -200 -213 -200 -447 -1 -125 -16 -239 -36 -269
-9 -15 -24 -24 -37 -23 -47 4 -53 0 -28 -20 69 -58 147 15 175 165 3 17 10 95
15 175 13 190 36 269 97 327 100 96 211 73 232 -48 9 -55 26 -54 30 1 8 127
-119 198 -248 139z"/>
    <path d="M4253 1598 c-17 -13 -39 -35 -47 -49 -20 -33 -29 -100 -17 -118 14
-21 31 -3 31 34 0 44 40 92 85 101 22 4 47 0 76 -14 115 -51 149 -134 168
-407 6 -82 18 -175 27 -204 28 -96 104 -147 159 -108 26 19 10 38 -25 30 -48
-9 -61 37 -71 246 -13 254 -40 349 -122 431 -55 56 -108 80 -177 80 -42 0 -63
-6 -87 -22z"/>
    <path d="M2260 1528 c0 -12 23 -45 54 -78 34 -35 59 -72 67 -98 14 -48 24 -53
33 -17 14 57 -15 148 -61 191 -35 32 -93 34 -93 2z"/>
    <path d="M4766 1529 c-40 -32 -66 -93 -66 -161 0 -32 4 -58 9 -58 4 0 16 19
25 43 8 23 41 68 72 100 33 34 54 64 52 75 -5 27 -59 27 -92 1z"/>
    <path d="M2717 1442 c-29 -32 -21 -69 21 -91 48 -25 98 38 68 84 -20 30 -65
33 -89 7z"/>
    <path d="M4316 1444 c-25 -24 -20 -71 8 -90 22 -13 29 -14 53 -2 35 17 45 74
17 95 -24 18 -59 16 -78 -3z"/>
    <path d="M2854 1280 c-102 -24 -200 -144 -220 -267 -5 -35 -4 -43 9 -43 8 0
20 13 26 28 16 38 87 109 132 133 41 20 105 25 155 10 45 -13 78 6 82 45 4 39
-32 79 -84 93 -43 12 -55 12 -100 1z"/>
    <path d="M4158 1278 c-40 -11 -88 -58 -88 -87 0 -26 23 -52 45 -52 11 0 49 3
85 6 48 5 74 3 102 -9 51 -22 104 -70 134 -122 14 -24 31 -44 36 -44 17 0 3
83 -24 141 -59 126 -183 197 -290 167z"/>
    <path d="M2195 1249 c-39 -23 -75 -63 -86 -96 -21 -65 22 -133 84 -133 32 0
77 21 96 44 16 20 7 20 -55 4 -42 -12 -47 -11 -60 7 -22 30 -17 64 15 96 21
21 39 29 63 29 63 -1 82 -32 94 -151 8 -85 9 -90 29 -82 11 4 15 23 15 77 0
89 -14 139 -49 178 -22 25 -37 31 -77 35 -27 2 -58 -2 -69 -8z"/>
    <path d="M4797 1242 c-48 -29 -68 -82 -68 -177 -1 -93 5 -113 27 -94 9 7 14
32 14 69 0 106 30 160 90 160 52 0 90 -39 90 -91 0 -33 -4 -40 -24 -45 -14 -3
-41 -1 -61 6 -60 20 -61 -5 -1 -34 79 -37 136 -10 143 70 4 40 0 56 -19 84
-43 64 -132 89 -191 52z"/>
    <path d="M3372 1072 c-70 -30 -84 -46 -71 -79 11 -30 55 -30 110 -2 l40 20 35
-20 c44 -26 100 -27 142 -1 l33 20 40 -21 c47 -23 97 -22 113 4 12 19 1 45
-25 58 -49 26 -108 49 -124 49 -10 0 -37 -10 -61 -21 l-43 -22 -50 22 c-62 26
-62 26 -139 -7z"/>
    <path d="M2837 1052 c-35 -38 -9 -102 40 -102 49 0 72 76 31 104 -29 21 -51
20 -71 -2z"/>
    <path d="M4200 1050 c-11 -11 -20 -29 -20 -40 0 -11 9 -29 20 -40 11 -11 29
-20 40 -20 11 0 29 9 40 20 11 11 20 29 20 40 0 11 -9 29 -20 40 -11 11 -29
20 -40 20 -11 0 -29 -9 -40 -20z"/>
    <path d="M2043 860 c-4 -15 -11 -18 -29 -14 -20 5 -24 2 -24 -15 0 -12 -6 -21
-14 -21 -20 0 -30 -18 -18 -33 5 -7 12 -25 16 -40 9 -37 56 -57 133 -57 105 0
190 -65 255 -197 17 -34 35 -63 41 -63 12 0 2 84 -18 139 -12 34 -12 40 1 45
18 7 18 35 0 42 -8 3 -12 13 -9 25 3 11 -1 21 -11 25 -9 3 -16 15 -16 25 0 12
-7 19 -19 19 -12 0 -18 7 -17 18 1 11 -6 17 -20 16 -14 0 -20 6 -20 20 1 16
-5 20 -20 19 -14 -2 -24 4 -27 17 -3 13 -11 18 -20 14 -8 -3 -17 2 -20 10 -8
19 -37 21 -37 4 0 -7 -7 -4 -16 7 -12 16 -18 18 -34 7 -12 -7 -21 -8 -25 -2
-10 16 -27 11 -32 -10z"/>
    <path d="M4984 865 c-5 -12 -10 -13 -20 -4 -16 13 -34 4 -34 -18 0 -12 -3 -13
-15 -3 -16 13 -35 6 -35 -15 0 -9 -6 -12 -16 -8 -10 4 -17 -1 -21 -15 -2 -11
-13 -22 -24 -25 -10 -3 -19 -12 -19 -20 0 -8 -10 -17 -21 -20 -14 -4 -20 -11
-16 -21 4 -9 -1 -17 -14 -21 -21 -7 -25 -20 -7 -31 7 -5 4 -10 -10 -15 -26
-10 -29 -34 -6 -43 11 -4 14 -12 9 -24 -17 -43 -33 -147 -25 -161 6 -12 14 -3
33 39 35 79 101 163 149 190 29 16 67 25 125 31 88 8 123 25 123 60 0 10 5 21
10 24 18 11 11 45 -9 45 -12 0 -18 7 -17 18 1 12 -6 17 -21 16 -13 0 -23 5
-23 12 0 20 -19 27 -36 13 -11 -9 -18 -9 -26 -1 -16 16 -27 15 -34 -3z"/>
    <path d="M2815 839 c-5 -16 -10 -18 -21 -8 -19 16 -44 4 -44 -22 0 -18 -2 -19
-15 -9 -19 16 -45 6 -45 -18 0 -13 -7 -18 -22 -18 -18 1 -23 -4 -23 -24 0 -21
-4 -25 -25 -25 -20 0 -25 -4 -23 -22 2 -17 -2 -23 -17 -23 -26 0 -36 -25 -20
-45 10 -13 9 -15 -9 -15 -29 0 -39 -29 -16 -46 18 -13 17 -14 -8 -14 -33 0
-37 -32 -7 -53 11 -8 17 -17 14 -20 -10 -9 -33 -128 -34 -169 0 -20 4 -39 8
-42 5 -3 27 29 48 72 46 91 139 194 204 227 26 13 77 31 114 39 106 25 155 60
141 99 -3 7 1 20 10 27 8 7 15 21 15 32 0 17 -5 19 -28 16 -25 -4 -28 -1 -24
19 5 27 -21 41 -43 23 -13 -10 -15 -9 -15 9 0 30 -29 39 -47 15 -13 -18 -15
-18 -24 -1 -13 23 -36 22 -44 -4z"/>
    <path d="M4190 845 c-7 -8 -9 -23 -6 -32 5 -16 5 -16 -8 0 -18 24 -51 18 -51
-8 0 -13 -8 -22 -24 -25 -30 -6 -37 -23 -16 -43 8 -9 15 -27 15 -41 0 -35 30
-63 82 -76 130 -33 179 -53 226 -90 56 -44 131 -143 163 -214 11 -25 24 -46
29 -46 15 0 12 98 -5 160 -14 53 -14 56 7 71 26 20 18 49 -13 49 -21 0 -21 1
-5 19 20 23 14 41 -14 41 -16 0 -18 5 -13 30 5 26 3 30 -16 30 -16 0 -21 6
-21 26 0 23 -4 26 -25 22 -21 -5 -24 -2 -19 17 6 25 -15 39 -42 28 -10 -4 -15
-1 -14 8 5 34 0 41 -25 37 -17 -4 -25 -1 -25 9 0 19 -27 28 -44 13 -12 -9 -17
-7 -26 9 -14 27 -37 27 -45 0 l-7 -21 -15 21 c-17 25 -26 26 -43 6z"/>
    <path d="M2027 579 c-9 -13 -17 -16 -22 -10 -9 16 -42 13 -49 -4 -3 -8 1 -30
9 -49 15 -35 15 -35 68 -29 102 10 186 -35 222 -120 15 -37 35 -42 35 -9 -1
23 -37 102 -58 125 -9 10 -17 24 -18 30 0 7 -2 18 -2 26 -2 10 -11 12 -32 8
-25 -5 -30 -3 -30 13 0 26 -15 33 -41 19 -18 -9 -24 -8 -31 5 -12 22 -34 20
-51 -5z"/>
    <path d="M5038 581 c-11 -19 -14 -19 -30 -4 -21 19 -48 11 -48 -15 0 -13 -7
-18 -27 -17 -20 0 -29 -6 -31 -20 -3 -11 -18 -39 -34 -61 -31 -43 -48 -117
-30 -128 6 -3 15 8 21 26 27 82 114 132 219 126 l66 -3 8 34 c5 18 7 40 4 47
-8 20 -45 17 -53 -3 -6 -15 -8 -14 -13 7 -7 32 -35 37 -52 11z"/>
    <path d="M1726 498 c-13 -19 -14 -25 -2 -43 26 -39 76 -26 76 19 0 46 -48 62
-74 24z"/>
    <path d="M5328 509 c-21 -12 -24 -49 -6 -67 28 -28 78 -7 78 33 0 40 -35 56
-72 34z"/>
    <path d="M2873 423 c-7 -2 -13 -12 -13 -20 0 -14 -3 -13 -21 3 -16 15 -23 16
-37 6 -9 -7 -30 -20 -47 -30 -43 -25 -105 -87 -105 -106 0 -22 17 -20 30 3 5
11 30 27 55 36 65 25 141 17 205 -23 58 -36 60 -37 60 -19 0 7 9 18 20 25 11
7 20 21 20 31 0 21 -33 37 -52 25 -8 -5 -9 -2 -5 9 9 25 -20 49 -43 37 -15 -8
-21 -6 -30 10 -11 20 -16 22 -37 13z"/>
    <path d="M4213 423 c-7 -2 -13 -14 -13 -24 0 -19 -2 -19 -22 -5 -25 18 -48 6
-48 -25 0 -12 -5 -16 -15 -13 -15 6 -45 -11 -45 -25 0 -4 12 -21 28 -38 l27
-30 60 33 c89 50 192 44 241 -13 24 -28 50 -23 35 6 -16 30 -74 81 -99 88 -12
3 -27 14 -33 24 -11 21 -39 25 -55 9 -8 -8 -15 -6 -24 5 -13 16 -17 17 -37 8z"/>
    <path d="M1865 370 c-16 -18 -17 -23 -5 -45 23 -42 80 -28 80 20 0 45 -44 59
-75 25z"/>
    <path d="M5184 369 c-20 -22 -13 -43 19 -63 36 -23 75 36 47 70 -17 20 -44 17
-66 -7z"/>
    <path d="M2042 298 c-17 -17 -15 -53 3 -68 23 -19 64 -4 71 27 11 41 -44 71
-74 41z"/>
    <path d="M5012 298 c-7 -7 -12 -21 -12 -33 0 -48 49 -60 76 -20 16 24 16 27
-1 45 -20 23 -45 26 -63 8z"/>
    <path d="M2225 230 c-37 -41 24 -97 63 -58 17 17 15 49 -5 64 -25 18 -37 17
-58 -6z"/>
    <path d="M4825 226 c-21 -31 -5 -66 28 -66 46 0 66 59 28 80 -29 15 -39 13
-56 -14z"/>
    <path d="M2406 174 c-12 -30 -6 -51 18 -62 44 -20 87 33 54 66 -17 17 -65 15
-72 -4z"/>
    <path d="M4643 183 c-21 -8 -15 -57 7 -71 38 -23 81 19 60 59 -10 18 -40 24
-67 12z"/>
    <path d="M2602 138 c-19 -19 -14 -56 9 -68 16 -9 26 -8 45 5 27 17 29 27 14
56 -12 21 -50 25 -68 7z"/>
    <path d="M4452 138 c-20 -20 -14 -54 13 -68 22 -12 27 -11 45 5 34 31 20 75
-25 75 -12 0 -26 -5 -33 -12z"/>
    <path d="M2790 106 c-28 -34 11 -93 47 -70 32 20 39 41 19 63 -22 24 -49 27
-66 7z"/>
    <path d="M4262 108 c-26 -26 -7 -78 28 -78 19 0 50 30 50 48 0 32 -54 54 -78
30z"/>
    <path d="M2987 82 c-30 -33 -15 -72 28 -72 43 0 59 44 27 73 -24 22 -35 21
-55 -1z"/>
    <path d="M4076 87 c-12 -9 -17 -23 -14 -42 3 -27 7 -30 37 -30 44 0 61 35 31
65 -23 23 -30 24 -54 7z"/>
  </g>
</svg>
